<?xml version="1.0" encoding="utf-8"?>
<!-- Generator: Adobe Illustrator 24.2.3, SVG Export Plug-In . SVG Version: 6.00 Build 0)  -->
<svg version="1.1" id="Capa_1" xmlns="http://www.w3.org/2000/svg" xmlns:xlink="http://www.w3.org/1999/xlink" x="0px" y="0px"
	 viewBox="0 0 357.9 240.8" style="enable-background:new 0 0 357.9 240.8;" xml:space="preserve">
<style type="text/css">
	.st0{fill:url(#SVGID_1_);}
	.st1{fill:url(#SVGID_2_);}
	.st2{fill:#E9F0F7;}
	.st3{fill:#343970;}
	.st4{fill:#FFFFFF;}
	.st5{fill:#384D96;}
	.st6{fill:#E2E4F1;}
	.st7{fill:#F6C1B2;}
	.st8{fill:#CD8993;}
	.st9{fill:#B63342;}
	.st10{fill:#840114;}
	.st11{fill:none;stroke:#343970;stroke-width:3;stroke-linecap:round;stroke-miterlimit:10;}
	.st12{fill:url(#SVGID_3_);}
	.st13{fill:#717EBA;}
</style>
<g>
	<g>
		
			<linearGradient id="SVGID_1_" gradientUnits="userSpaceOnUse" x1="183.1582" y1="46.3961" x2="172.7883" y2="282.5995" gradientTransform="matrix(1 0 0 -1 0 250)">
			<stop  offset="0" style="stop-color:#FFFFFF"/>
			<stop  offset="0.1171" style="stop-color:#FBFCFD"/>
			<stop  offset="1" style="stop-color:#E2E4F1"/>
		</linearGradient>
		<rect x="0.9" class="st0" width="357" height="236"/>
		
			<linearGradient id="SVGID_2_" gradientUnits="userSpaceOnUse" x1="178.9753" y1="68.842" x2="176.8549" y2="121.1457" gradientTransform="matrix(1 0 0 -1 0 250)">
			<stop  offset="0" style="stop-color:#FFFFFF"/>
			<stop  offset="0.1171" style="stop-color:#FBFCFD"/>
			<stop  offset="1" style="stop-color:#E2E4F1"/>
		</linearGradient>
		<polygon class="st1" points="344.4,172.1 344.4,152.7 344.4,140.1 331.2,140.1 331.2,152.7 312,152.7 312,101.4 302.7,101.4 
			302.7,65.1 275,65.1 275,79 264.7,79 264.7,101.4 257.9,101.4 254,101.4 254,78.9 250.3,78.9 250.3,101.4 238.4,101.4 238.4,69.4 
			194.7,69.4 194.7,65.1 167,65.1 167,79 156.7,79 156.7,101.4 149.9,101.4 146,101.4 146,78.9 142.3,78.9 142.3,101.4 130.4,101.4 
			130.4,69.4 83.8,69.4 76.4,69.4 76.4,117.4 64.3,117.4 64.3,105.3 38,105.3 38,125.5 23,125.5 23,139.8 1,139.8 1,201.3 23,201.3 
			27.3,201.3 38,201.3 49.3,201.3 58.9,201.3 64.3,201.3 70.6,201.3 76.4,201.3 83.8,201.3 85.2,201.3 96.9,201.3 109,201.3 
			122.9,201.3 130.4,201.3 130.5,201.3 131,201.3 135.3,201.3 139.9,201.3 146,201.3 149.9,201.3 156.7,201.3 157.3,201.3 
			166.9,201.3 167,201.3 172.3,201.3 177,201.3 178.6,201.3 184.4,201.3 184.4,201.3 191.8,201.3 193.2,201.3 194.7,201.3 
			204,201.3 204.9,201.3 223.1,201.3 230.9,201.3 238.4,201.3 238.5,201.3 247.9,201.3 249.4,201.3 257.9,201.3 264.7,201.3 
			275,201.3 285,201.3 292.4,201.3 302.7,201.3 312,201.3 312,201.3 331.1,201.3 331.1,201.3 357.4,201.3 357.4,172.1 		"/>
		<rect y="220.8" class="st2" width="358" height="20"/>
	</g>
	<g>
		<g>
			<path class="st3" d="M225.1,27.1c0,0,7.4-16.8,11.5-17.3s9.3,9.5,9.3,10.7c0,1.2,16.3,5.5,17.3,9.8s-7.9,28.4-7.9,28.4l-4.3-1.9"
				/>
			<path class="st4" d="M106.3,203c0,0,23.9-60.9,34.1-64.3s24.5,0,24.5,0l9.1-2.3c0,0,33-2.8,41,29c8,31.9,10.8,38.7,2.8,41.5"/>
			<path class="st5" d="M106.4,222.2c0,0,34-129.6,57.9-141s56.9,6.8,56.9,6.8s50.1,22.2,55.8,35.3s-10.8,97.3-15.9,103
				S160,222.9,160,222.9"/>
			<path class="st4" d="M215.9,83.2c-2.9-0.5-5.9-0.5-8.9-0.1c-0.4,0.1-0.8,0.1-1.1,0.3c-0.2,0.1-0.3,0.3-0.5,0.5
				c-3.6,4.5-6.2,9.7-7.7,15.2c-0.1,0.5-0.2,1-0.1,1.4c0.3,0.8,1.3,1,2.1,1.2c4.8,0.9,9.5,2.8,13.6,5.5"/>
			<path class="st6" d="M214.9,93.2l1-9.9c-2.9-0.5-5.9-0.5-8.9-0.1c-0.4,0.1-0.8,0.1-1.1,0.3c-0.2,0.1-0.3,0.3-0.5,0.5
				c-3.5,4.4-6.1,9.5-7.6,14.9C203.4,96.6,209.2,94.8,214.9,93.2z"/>
			<path class="st4" d="M239,94.1c1.5,2.6,5.2,8.7,5.8,11.6c0.1,0.4,0.2,0.8,0,1.2c-0.1,0.2-0.2,0.4-0.3,0.6
				c-3.3,5-7.7,9.3-12.9,12.7c-0.4,0.3-0.9,0.6-1.4,0.6c-0.9,0-1.5-0.8-2-1.5c-2.7-4.2-6.3-7.9-10.5-10.7"/>
			<path class="st7" d="M163.6,202.2c0,0-25.6-3.7-32.9-2.4c-7.3,1.2-12.2,20.7-11,24.3c1.2,3.7,40.2-1.2,40.2-1.2L163.6,202.2z"/>
			<path class="st8" d="M160.7,201.9c-7.2,5.6-11.1,13.7-13.3,22.4c7-0.7,12.5-1.4,12.5-1.4l3.7-20.7
				C163.6,202.2,162.5,202.1,160.7,201.9z"/>
			<path class="st9" d="M208.2,110.3c-1,3.3-4.4,5.4-5.8,8.5c-1.7,3.9,0.1,8.4,2.1,12.1c2,3.8,4.2,7.9,3.3,12
				c-0.7,3.4-3.4,6-5.9,8.5c-6.8,6.7-13.1,14-18.9,21.6c-2.2,3-4.4,6.2-5.3,9.8c-1.4,5.6,0.3,11.6,2.6,17c0.4,0.9,0.8,1.8,1.6,2.4
				c0.8,0.5,1.7,0.5,2.7,0.5c9.4,0.2,18.8,0.4,28.2,0.6c-1.1-5.1-2.2-10.2-3.3-15.3c-1-4.5-1.9-9.1-1.2-13.7
				c1.8-11.5,13.7-19.9,13.8-31.5c0-4-1.4-7.8-2.8-11.5c-1.5-4-3-8-4.5-12c-0.7-2-1.3-4.8,0.6-5.9"/>
			<path class="st10" d="M209.3,187.7c-3.3,1.6-6.7,2.8-9.5,3.7c-7,2.3-14.3,3.2-21.7,3c0.5,1.8,1.2,3.6,2,5.4
				c0.4,0.9,0.8,1.8,1.6,2.4c0.8,0.5,1.7,0.5,2.7,0.5c9.4,0.2,18.8,0.4,28.2,0.6c-1.1-5.1-2.2-10.2-3.3-15.3
				C209.4,187.9,209.3,187.8,209.3,187.7z"/>
			<path class="st5" d="M265.4,115.3c0,0,13.3,26.5,8.7,56.4s-13.3,64.3-20.2,67.7c-6.9,3.4-96.5-13.8-97.7-16.1
				c-1.1-2.3,2.3-21.8,5.7-24.1s67.8,5.7,67.8,5.7S241.3,72.8,265.4,115.3z"/>
			<path class="st11" d="M156.3,223.3c-1.1-2.3,2.3-21.8,5.7-24.1s67.8,5.7,67.8,5.7s7.4-51.1,10.5-69.4"/>
			<path class="st7" d="M211.3,91.6c0.2-3.6,13.5-26.7,13.5-26.7l26.8-5c0,0-7.1,21.7-11.3,32.7c-1.6,4.1-4.2,7.6-7.7,10.2
				C224.6,108.7,209.9,116.3,211.3,91.6z"/>
			<path class="st3" d="M245.6,77.8c3.2-9.2,6-17.9,6-17.9l-26.8,5c0,0-6.2,10.7-10.2,18.7C225.4,84.8,236.7,83.3,245.6,77.8z"/>
			<path class="st7" d="M232.6,26.6c-4-1.2-6-1.4-8.4,1.9c-7.6,10.6-22.6,33.6-16.7,41c7.9,9.7,27.4,10.4,32.7,8.2
				c5.3-2.2,16.5-31.1,14.6-38.1C253.5,35,241,29.2,232.6,26.6z"/>
			
				<ellipse transform="matrix(0.3662 -0.9305 0.9305 0.3662 95.8106 235.3856)" class="st3" cx="220.7" cy="47.4" rx="2.7" ry="1.6"/>
			
				<ellipse transform="matrix(0.3662 -0.9305 0.9305 0.3662 101.5246 256.3461)" class="st3" cx="238.9" cy="53.6" rx="2.7" ry="1.6"/>
			<g>
				<path class="st3" d="M229.4,46.3c-1.2,0.8-2.5,1.6-3.6,2.6s-2.1,2-3,3.2c-0.8,1.1-1.9,2.8-1.1,4.2c0.5,0.7,1.3,1,2.1,1.2
					c0.9,0.2,1.8,0.3,2.7,0.2c0.5,0,0.9-0.4,0.9-0.9c0-0.4-0.4-0.9-0.9-0.9c-0.8,0.1-1.5,0-2.2-0.2c-0.4-0.1-1.2-0.3-1.1-0.7
					c0-0.5,0.3-1,0.6-1.4c0.3-0.5,0.7-1,1.1-1.4c0.8-0.9,1.6-1.8,2.5-2.5c0.9-0.8,1.9-1.4,2.9-2C231.2,47.2,230.4,45.7,229.4,46.3
					L229.4,46.3z"/>
			</g>
			<ellipse class="st7" cx="252.8" cy="61.6" rx="7.7" ry="6.5"/>
			<path class="st3" d="M229.2,38.4c-0.2-0.9-1.1-0.9-1.9-0.9c-0.8,0-1.6,0-2.3,0c-1.5,0.1-3.1,0.2-4.5,0.6
				c-0.7,0.2-0.7,0.9-0.4,1.3c0.1,0.4,0.4,0.7,0.8,0.7c1.6,0.1,3.1,0.1,4.7,0c0.8,0,1.6,0,2.4-0.1C228.7,39.9,229.4,39.2,229.2,38.4
				z"/>
			<path class="st3" d="M246.9,46.7c-0.5-1.2-1.4-2-2.2-3c-0.8-0.9-1.6-1.8-2.5-2.7c-0.1-0.1-0.2-0.2-0.3-0.2s-0.1,0-0.2,0h-0.1
				c-1-0.1-1.9,0.8-1.9,1.8c0,1.1,0.9,1.6,1.7,2.2c0.8,0.5,1.5,1.1,2.3,1.6c0.4,0.3,0.8,0.5,1.1,0.8c0.5,0.3,0.9,0.6,1.5,0.5
				C246.7,47.7,247.1,47.1,246.9,46.7z M246.1,46.1C246.2,46.1,246.2,46.1,246.1,46.1L246.1,46.1z"/>
			<g>
				<path class="st3" d="M251,62.8c0.2,0,0.5-0.1,0.7-0.1c0.1,0,0.1,0,0.2,0c-0.1,0-0.1,0,0,0s0.2,0,0.3,0c0.4,0,0.9-0.1,1.3-0.1
					c0.9,0,1.8,0,2.8,0c0.6,0,1.2-0.6,1.2-1.2c0-0.7-0.5-1.1-1.2-1.2c-2-0.1-4,0-5.9,0.4c-0.6,0.1-1,0.9-0.8,1.4
					C249.7,62.6,250.3,62.9,251,62.8L251,62.8z"/>
			</g>
			<path class="st9" d="M218,107.1c-2.5-1.3-5.3-2.1-8.1-2.2c-0.6,0-1.3,0-1.8,0.4s-0.6,1-0.7,1.5c-0.4,3,1.3,5.8,3.1,8.2
				c0.2,0.2,0.4,0.5,0.7,0.6s0.6,0,0.9-0.1c1.7-0.5,3.3-1.1,4.9-1.9c0.8-0.4,1.6-0.8,2.2-1.4c0.6-0.6,1.1-1.4,1.1-2.3
				c0-1.1-0.7-2.1-1.6-2.7s-2-0.9-3.1-1.1"/>
			<path class="st5" d="M89.4,82.5c0,0-53.4,99.9-26.1,112.4s74.9-34.2,74.9-34.2"/>
			<g>
				<path class="st3" d="M231.1,62.6c-2.1,1-4.5,1.3-6.8,0.8c-1-0.2-1.4,1.3-0.4,1.6c2.7,0.6,5.5,0.3,8-0.9c0.4-0.2,0.5-0.8,0.3-1.1
					C232,62.5,231.5,62.4,231.1,62.6L231.1,62.6z"/>
			</g>
		</g>
		
			<linearGradient id="SVGID_3_" gradientUnits="userSpaceOnUse" x1="143.3227" y1="231.3169" x2="134.214" y2="124.2892" gradientTransform="matrix(1 0 0 -1 0 250)">
			<stop  offset="0" style="stop-color:#FFFFFF"/>
			<stop  offset="0.6315" style="stop-color:#F9D5CB"/>
			<stop  offset="1" style="stop-color:#F6C1B2"/>
		</linearGradient>
		<rect x="84.1" y="36.7" class="st12" width="104.4" height="129"/>
		<rect x="93.2" y="47.8" class="st4" width="86.1" height="106.3"/>
		<g>
			<g>
				<circle class="st5" cx="154.8" cy="72.9" r="10.4"/>
			</g>
			<g>
				<path class="st4" d="M153.5,77c-0.3,0-0.5-0.1-0.7-0.3l-3.7-3.7c-0.4-0.4-0.4-1.1,0-1.5s1.1-0.4,1.5,0l2.9,2.9L159,69
					c0.4-0.4,1.1-0.4,1.5,0s0.4,1.1,0,1.5l-6.2,6.2C154,76.9,153.8,77,153.5,77z"/>
			</g>
		</g>
		<g>
			<g>
				<circle class="st13" cx="154.8" cy="102.5" r="10.4"/>
			</g>
			<g>
				<path class="st4" d="M153.5,106.7c-0.3,0-0.5-0.1-0.7-0.3l-3.7-3.7c-0.4-0.4-0.4-1.1,0-1.5s1.1-0.4,1.5,0l2.9,2.9l5.5-5.5
					c0.4-0.4,1.1-0.4,1.5,0s0.4,1.1,0,1.5l-6.2,6.2C154,106.6,153.8,106.7,153.5,106.7z"/>
			</g>
		</g>
		<g>
			<g>
				<circle class="st13" cx="154.8" cy="132.9" r="10.4"/>
			</g>
			<g>
				<path class="st4" d="M153.5,137c-0.3,0-0.5-0.1-0.7-0.3l-3.7-3.7c-0.4-0.4-0.4-1.1,0-1.5s1.1-0.4,1.5,0l2.9,2.9l5.5-5.5
					c0.4-0.4,1.1-0.4,1.5,0c0.4,0.4,0.4,1.1,0,1.5l-6.2,6.2C154,136.9,153.8,137,153.5,137z"/>
			</g>
		</g>
		<g>
			<rect x="107.4" y="71.1" class="st6" width="30.4" height="3.5"/>
			<rect x="107.4" y="100.8" class="st6" width="30.4" height="3.5"/>
			<rect x="107.4" y="133.5" class="st6" width="30.4" height="3.5"/>
		</g>
		<path class="st6" d="M115,61.3l-2.1,1.1c-0.4,0.2-1-0.1-0.9-0.6l0.4-2.3l-1.7-1.6c-0.4-0.3-0.2-1,0.3-1l2.3-0.3l1-2.1
			c0.2-0.4,0.9-0.4,1.1,0l1,2.1l2.3,0.3c0.5,0.1,0.7,0.7,0.3,1l-1.7,1.6l0.4,2.3c0.1,0.5-0.4,0.9-0.9,0.6L115,61.3z"/>
		<path class="st6" d="M132.6,61.3l-2.1,1.1c-0.4,0.2-1-0.1-0.9-0.6l0.4-2.3l-1.7-1.6c-0.4-0.3-0.2-1,0.3-1l2.3-0.3l1-2.1
			c0.2-0.4,0.9-0.4,1.1,0l1,2.1l2.3,0.3c0.5,0.1,0.7,0.7,0.3,1l-1.7,1.6l0.4,2.3c0.1,0.5-0.4,0.9-0.9,0.6L132.6,61.3z"/>
		<path class="st13" d="M140.9,32c-0.4-2.6-2.6-4.6-5.3-4.6s-5,2-5.3,4.6h-8.9c-3.5,0-6.3,2.8-6.3,6.3v10h41v-10
			c0-3.5-2.8-6.3-6.3-6.3H140.9z"/>
		<g>
			<path class="st8" d="M132.6,31.4c0,0,6.8-12.5,12.5-12.5s14.8,20.4,11.4,20.4c-3.4,0-11.4-12.5-11.4-12.5l-1.1,5.7"/>
			<path class="st7" d="M124.2,32c0,0,9.5-13.1,15.2-13.1s14.8,20.4,11.4,20.4c-3.4,0-11.4-12.5-11.4-12.5l-2.2,5"/>
			<path class="st7" d="M122.1,32c0,0,5.9-13.1,11.6-13.1s14.8,20.4,11.4,20.4c-3.4,0-11.4-12.5-11.4-12.5l-1.3,5"/>
		</g>
	</g>
</g>
</svg>
