<?xml version="1.0" encoding="utf-8"?>
<!-- Generator: Adobe Illustrator 22.0.1, SVG Export Plug-In . SVG Version: 6.00 Build 0)  -->
<svg version="1.1" id="Capa_1" xmlns="http://www.w3.org/2000/svg" xmlns:xlink="http://www.w3.org/1999/xlink" x="0px" y="0px"
	 viewBox="0 0 357 236" style="enable-background:new 0 0 357 236;" xml:space="preserve">
<style type="text/css">
	.st0{fill:url(#SVGID_1_);}
	.st1{fill:url(#SVGID_2_);}
	.st2{fill:#FFFFFF;}
	.st3{fill:#717EBA;}
	.st4{fill:#384D96;}
	.st5{fill:#E2E4F1;}
	.st6{fill:#313962;}
	.st7{opacity:0.41;fill:#384D96;enable-background:new    ;}
	.st8{fill:#B31935;}
	.st9{fill:#B00A22;}
	.st10{fill:#95051E;}
	.st11{fill:#CD8993;}
	.st12{fill:#35478E;}
	.st13{fill:#E9F0F7;}
</style>
<g>
	
		<linearGradient id="SVGID_1_" gradientUnits="userSpaceOnUse" x1="182.2583" y1="85.6052" x2="171.8884" y2="-150.5982" gradientTransform="matrix(1 0 0 1 0 118)">
		<stop  offset="0" style="stop-color:#FFFFFF"/>
		<stop  offset="0.1171" style="stop-color:#FBFCFD"/>
		<stop  offset="1" style="stop-color:#E2E4F1"/>
	</linearGradient>
	<rect class="st0" width="357" height="236"/>
	
		<linearGradient id="SVGID_2_" gradientUnits="userSpaceOnUse" x1="178.375" y1="53.7513" x2="176.2546" y2="1.4475" gradientTransform="matrix(1 0 0 1 0 118)">
		<stop  offset="0" style="stop-color:#FFFFFF"/>
		<stop  offset="0.1171" style="stop-color:#FBFCFD"/>
		<stop  offset="1" style="stop-color:#E2E4F1"/>
	</linearGradient>
	<polygon class="st1" points="343.8,162.7 343.8,143.3 343.8,130.7 330.6,130.7 330.6,143.3 311.4,143.3 311.4,92 302.1,92 
		302.1,55.7 274.4,55.7 274.4,69.6 264.1,69.6 264.1,92 257.3,92 253.4,92 253.4,69.5 249.6,69.5 249.6,92 237.8,92 237.8,60 
		194.1,60 194.1,55.7 166.4,55.7 166.4,69.6 156.1,69.6 156.1,92 149.3,92 145.4,92 145.4,69.5 141.6,69.5 141.6,92 129.8,92 
		129.8,60 83.2,60 75.7,60 75.7,108 63.6,108 63.6,95.9 37.3,95.9 37.3,116.1 22.4,116.1 22.4,130.4 0.4,130.4 0.4,191.9 
		22.4,191.9 26.7,191.9 37.3,191.9 48.7,191.9 58.3,191.9 63.6,191.9 70,191.9 75.7,191.9 83.2,191.9 84.6,191.9 96.3,191.9 
		108.4,191.9 122.3,191.9 129.8,191.9 129.9,191.9 130.4,191.9 134.7,191.9 139.3,191.9 145.3,191.9 149.3,191.9 156.1,191.9 
		156.7,191.9 166.3,191.9 166.4,191.9 171.6,191.9 176.3,191.9 178,191.9 183.7,191.9 183.8,191.9 191.2,191.9 192.6,191.9 
		194.1,191.9 203.4,191.9 204.3,191.9 222.5,191.9 230.3,191.9 237.8,191.9 237.9,191.9 247.3,191.9 248.8,191.9 257.3,191.9 
		264.1,191.9 274.4,191.9 284.3,191.9 291.8,191.9 302.1,191.9 311.4,191.9 311.4,191.9 330.5,191.9 330.5,191.9 356.8,191.9 
		356.8,162.7 	"/>
	<circle class="st2" cx="36.4" cy="42.1" r="11"/>
	<rect y="181.5" class="st3" width="357" height="33.2"/>
	<g>
		<rect x="127.4" y="94.3" class="st3" width="101.2" height="104.7"/>
		<rect x="127.4" y="94.3" class="st4" width="101.2" height="11.6"/>
		<rect x="127.4" y="157.7" class="st5" width="101.2" height="41.3"/>
		<path class="st3" d="M135.6,157.7h-8.2v8.3C130.1,163.2,132.9,160.5,135.6,157.7z"/>
		<path class="st3" d="M140.3,157.7c-4.3,4.3-8.6,8.7-12.9,13V199h9.3l41.3-41.3H140.3z"/>
		<path class="st3" d="M228.7,173.2v-7.9c-11.3,11.2-22.5,22.5-33.7,33.7h7.8C211.4,190.4,220,181.8,228.7,173.2z"/>
		<path class="st3" d="M207.5,199h21.2v-21.1C221.6,185,214.5,192,207.5,199z"/>
		<g>
			<rect x="133.4" y="112.3" class="st2" width="87.2" height="30.9"/>
		</g>
		<rect x="199.8" y="158.7" class="st4" width="3" height="40.2"/>
		<g>
			<g>
				<rect x="161.7" y="170.9" class="st2" width="8.7" height="6.7"/>
				<rect x="172.5" y="170.9" class="st2" width="8.7" height="6.7"/>
				<rect x="183.2" y="170.9" class="st2" width="8.7" height="6.7"/>
			</g>
			<g>
				<rect x="161.7" y="179.3" class="st2" width="8.7" height="6.7"/>
				<rect x="172.5" y="179.3" class="st2" width="8.7" height="6.7"/>
				<rect x="183.2" y="179.3" class="st2" width="8.7" height="6.7"/>
			</g>
			<g>
				<rect x="161.7" y="187.6" class="st2" width="8.7" height="6.7"/>
				<rect x="172.5" y="187.6" class="st2" width="8.7" height="6.7"/>
				<rect x="183.2" y="187.6" class="st2" width="8.7" height="6.7"/>
			</g>
		</g>
		<rect x="206.5" y="165.1" class="st2" width="17.8" height="33.9"/>
		<path class="st4" d="M208.8,190.9h-0.4c-0.4,0-0.6-0.3-0.6-0.6v-15.5c0-0.4,0.3-0.6,0.6-0.6h0.4c0.4,0,0.6,0.3,0.6,0.6v15.5
			C209.5,190.6,209.2,190.9,208.8,190.9z"/>
		<rect x="127.4" y="157.7" class="st4" width="101.2" height="9.7"/>
		<g>
			<polygon class="st2" points="233.3,158.7 122.4,158.7 123.1,144.8 232.7,144.8 			"/>
			<rect x="123.1" y="144.8" class="st4" width="109.6" height="3.9"/>
		</g>
		<rect x="132.9" y="170.4" class="st4" width="24.9" height="23.9"/>
		<g>
			<ellipse class="st6" cx="128.7" cy="178.2" rx="8.3" ry="14"/>
			<polygon class="st2" points="132.9,199.5 124.6,199.5 123.6,191.2 133.9,191.2 			"/>
		</g>
		<path class="st7" d="M228.7,94.3h-90c2.5,12.1,9.1,24,15.3,33.7c8.9,13.9,19.8,27.2,32.5,37.8c12.6,10.5,27,18.9,42.2,25.1v-32.1
			h4.7l-0.7-14h-4V94.3z"/>
	</g>
	<g>
		<g>
			<path class="st2" d="M229.6,123c-0.4,0.1-0.8,0.1-1.2-0.1l-6.6-3.5c-2.4-1.3-4.9-2.6-7.2-4l-1-0.6l-0.9-0.5l-0.9-0.5l-0.9-0.5
				l-0.9-0.5l-0.9-0.5l-0.9-0.5l-0.9-0.5l-0.9-0.5l-0.9-0.5l-0.9-0.5l-0.9-0.5c-0.2-0.1-0.9-0.5-0.9-0.5c-0.3-0.2-0.9-0.5-0.9-0.5
				c-0.3-0.2-0.8-0.5-0.8-0.5c-12-7.4-19.9-13.3-23.2-17.5l-0.2-0.2c-0.1-0.2-0.2-0.2-0.4-0.5c0,0,0,0,0-0.1c0,0-0.1-0.1-0.2-0.2
				l-0.1-0.1l0,0c-3-4-5.8-8.9-7.8-13.8c-2.7-6.5-4-12.9-4-19.2c0,0,0,0,0-0.1v-0.3c0-3.1,0.3-6.3,1.1-9.7c1.6-6.4,4-11,5.8-13.6
				c1.7-2.5,3.5-4.5,5-5.3c0.1,0,0.1-0.1,0.1-0.1c4-6.6,10.1-9.3,13.4-10.2c0.6-0.2,1.1-0.3,1.6-0.4l0,0c0.1,0,0.2-0.1,0.2-0.1
				c2.6-3.4,7.3-5,9.1-5.6c0.2-0.1,0.4-0.1,0.5-0.2l0,0c0.1,0,0.3-0.1,0.5-0.2c1.9-0.6,6.7-1.7,10.7-0.4c0.1,0,0.2,0,0.2,0l0,0
				c0.5-0.2,1-0.4,1.6-0.6c3.3-1,9.8-2.1,16.8,1.2c0.1,0,0.1,0,0.2,0c1.7-0.1,4.3,0.5,7,1.7c3,1.3,7.5,3.7,12.3,8.2
				c2.5,2.4,4.7,4.9,6.3,7.5l0.1,0.1l0.1,0.1c0.1,0.1,0.2,0.3,0.2,0.4l0.2,0.3c0.1,0.1,0.1,0.2,0.2,0.3c0.1,0.2,0.2,0.4,0.3,0.5
				l0.1,0.1c0.1,0.2,0.2,0.3,0.3,0.5c0,0.1,0.1,0.2,0.2,0.3l0.1,0.1c0.1,0.3,0.3,0.5,0.4,0.8l0.1,0.2c0.2,0.4,0.3,0.7,0.5,0.9l0,0
				c1.1,2.2,2,4.5,2.8,6.9l0,0c0.1,0.4,0.2,0.8,0.3,1.1c3,9.7,2.7,18.5,2.4,21.8c0,0.1,0,0.3,0,0.3c0,0.3,0,0.4,0,0.6v0.2
				c0,0.1,0,0.2,0,0.3v0.3v0.2c0,0.1,0,0.3-0.1,0.4c0,0.1,0,0.2,0,0.3c0,0,0,0.3-0.1,0.3c0,0.1,0,0.3-0.1,0.4v0.2
				c-0.1,0.7-0.3,1.4-0.5,2.2l0,0c-1.3,5.2-4.1,12.3-8.3,21.3l0,0c-0.1,0.3-0.3,0.7-0.5,1l0,0c-0.1,0.3-0.3,0.7-0.5,1l0,0
				c-0.2,0.3-0.3,0.7-0.5,1l0,0c-0.2,0.3-0.3,0.7-0.5,1l0,0c-0.2,0.3-0.3,0.6-0.5,1l0,0c-0.2,0.3-0.3,0.7-0.5,1v0.1
				c-0.2,0.3-0.3,0.6-0.5,1l0,0c-0.2,0.3-0.3,0.6-0.5,1c0,0-0.3,0.7-0.5,1l-0.5,1c-0.2,0.3-0.5,1-0.5,1c-4.1,8.1-7.8,14.9-9.7,18.2
				c-0.2,0.4-0.5,0.6-0.9,0.7L229.6,123L229.6,123z"/>
			<path class="st3" d="M235.6,133.9c-0.5,0.1-0.9,0-1.2-0.4l-3.3-5.3c-0.5,0.1-1-0.2-1.2-0.8l-0.2-0.7c-0.2-0.6,0.1-1.2,0.7-1.3
				l11.3-3.4c0.6-0.2,1.2,0.1,1.3,0.7l0.2,0.7c0.2,0.5-0.1,1.1-0.6,1.3l0.1,6.2c0,0.5-0.3,0.9-0.7,1L235.6,133.9z"/>
			<path class="st2" d="M178.5,88.2c0.3,0.3,0.2,0.3,0.5,0.6c2.8,3.6,8.9,8.2,16,12.9c8.5,5.6,18.4,11.3,25.9,15.4
				c2.8,1.5,5.4,2.9,7.5,4l0,0c0.2,0.1,0.3,0.2,0.5,0.3h0.1l5.6-1.7l0,0l5.3-1.6l0.3-0.1c6.5-11.5,19.9-36.5,23.5-50.2
				c0.2-0.7,0.3-1.4,0.5-2.1c0-0.1,0-0.1,0-0.2s0-0.2,0.1-0.3c0.1-0.1,0-0.2,0-0.3s0-0.2,0-0.3c0-0.1,0-0.2,0.1-0.3
				c0-0.1,0-0.1,0-0.2c0-0.2,0-0.4,0.1-0.5c0-0.1,0-0.1,0-0.1c0-0.1,0-0.2,0-0.3c0-0.2,0-0.4,0-0.4c0.7-8.5-0.5-22.6-8-33.9
				c0,0-16.5-22-52.1-11.3c-32.1,8.4-37.6,38-37.6,38l0.2,0.6l-0.2-0.1C166.9,69.3,173.3,81.5,178.5,88.2
				C178.5,88.1,178.5,88.1,178.5,88.2z"/>
			<path class="st8" d="M202.5,11.9c-1.1,0.3-6.8,2-9.3,5.8c0,0-9.7,1.3-15,10.6c-1.8,0.5-7.7,6.7-10.4,18.1
				c-0.7,3.1-1.1,6.3-1.1,9.3c0.7-1.8,3.2-9,12.5-10.9c0.5-0.7,4.3-8.5,16.7-9.9c1.1-2.2,6.5-5.7,11.4-7.2
				c4.9-1.4,11.4-1.4,13.5-0.2c11.1-5.6,18.6-1.2,19.4-0.9c8.8-3.5,14.9,1,16.4,2.2c-1.6-2.6-3.7-5-6.1-7.2c-8.6-8-16.9-10-18.7-9.4
				c-9.5-4.9-18.3-0.6-18.3-0.6C209.3,9.8,203.6,11.5,202.5,11.9"/>
			<path class="st9" d="M193.2,17.6c0,0-9.7,1.3-15,10.6c-1.8,0.5-7.7,6.7-10.4,18.1c-0.7,3.1-1.1,6.3-1.1,9.3
				c0.7-1.8,3.2-9,12.5-10.9c0.5-0.7,4.3-8.5,16.6-9.9C194.2,25.2,193.2,17.6,193.2,17.6z"/>
			<path class="st10" d="M179.2,44.8C179.2,44.8,179.3,44.8,179.2,44.8c-0.9-9.3-1-16.6-1-16.6c-1.8,0.5-7.7,6.7-10.4,18.1
				c-0.7,3.1-1.1,6.3-1.1,9.3C167.4,53.9,169.9,46.7,179.2,44.8z"/>
			<path class="st11" d="M213.5,11.6c0,0,8.8-4.3,18.3,0.6c1.7-0.5,10.1,1.4,18.7,9.4c2.3,2.2,4.4,4.6,6.1,7.2
				c-1.6-1.1-7.6-5.7-16.4-2.2c-0.8-0.3-8.2-4.7-19.3,0.9C216.8,18.4,213.5,11.6,213.5,11.6z"/>
			<polygon class="st3" points="236.6,125.2 236.5,125.2 231.4,126.7 231.5,126.8 235.3,132.9 238.6,131.9 			"/>
			<polygon class="st3" points="236.5,125.2 236.6,125.2 241.7,123.6 241.6,123.8 241.8,131 238.5,132 			"/>
			<path class="st3" d="M242.3,123.8l-11.3,3.4l0,0l-0.2-0.7l0,0L242,123l0,0L242.3,123.8C242.3,123.7,242.3,123.7,242.3,123.8z"/>
			<polygon class="st3" points="241.6,124.1 241.6,123.9 231.6,126.9 231.7,127.1 			"/>
			<path class="st12" d="M251.2,61.1c-0.1,0-7.7-4.2-18.8,0.2c-0.7-0.2-5.6-1.2-14.8,1c-8.2,2.6-12.4,6.7-12.9,7.2
				C193,72,189,79.7,188.9,79.7c-6.9,1.9-10.1,8-10.3,8.7c0.3,0.3,0.2,0.3,0.5,0.6c7.5,9.4,37,25.6,50.1,32.4l5.7-1.7l5.7-1.7
				c7.2-12.8,23-42.6,24.1-54.6c0-0.4,0-0.4,0.1-0.8C264,62.3,258,58.8,251.2,61.1z"/>
			<path class="st3" d="M232.4,61.3c11.1-4.5,18.6-0.2,18.8-0.2c6.8-2.2,12.9,1.2,13.4,1.6c0,0.4,0,0.4-0.1,0.8
				c-1.1,12-16.9,41.8-24.1,54.6l-3.1,0.9C240.2,99.8,237.1,79.2,232.4,61.3z"/>
			<path class="st6" d="M188.9,79.7c-6.9,1.9-10.1,8-10.3,8.7c0.3,0.3,0.2,0.3,0.5,0.6c7.5,9.4,37,25.6,50.1,32.4
				c0,0-21.6-17.5-36.4-36C191.3,83.7,190,81.8,188.9,79.7z"/>
			<path class="st12" d="M185.8,57.4L185.8,57.4c0.4,1.2-0.1,2.3-1.2,3.1c-0.7,0.5-1,0.7-1.7,1.3c-0.5-1.5-0.8-2.2-1.3-3.7
				c0.7-0.5,1-0.7,1.7-1.2C184.5,56,185.4,56.2,185.8,57.4z M188.3,55.7C188.3,55.6,188.3,55.6,188.3,55.7c-0.4-1.3-1.2-2.1-2.1-2.4
				c-1-0.3-2.3,0-3.7,1c-1.5,1.1-3,2.1-4.4,3.3c1.5,4.2,3,8.3,4.5,12.5c1-0.8,1.4-1.1,2.4-1.9c-0.6-1.6-0.9-2.5-1.5-4.1
				c0.6-0.4,0.9-0.6,1.4-1c1.4,1,2.1,1.6,3.6,2.6c1.1-0.8,1.7-1.2,2.9-1.9c-1.4-1-2.8-2-4.2-3C188.5,59.3,189,57.4,188.3,55.7z"/>
			<path class="st12" d="M232.3,44.2c-1.2,0.1-1.7,0.2-2.9,0.3c0.1-1.7,0.2-2.5,0.4-4.1C230.8,41.9,231.3,42.6,232.3,44.2z
				 M227.4,36.7c-0.5,4.6-1,9.2-1.4,13.8c1.2-0.2,1.8-0.3,3-0.5c0.1-1.2,0.1-1.8,0.2-2.9c1.9-0.3,2.8-0.4,4.7-0.6
				c0.7,1.1,1.1,1.6,1.8,2.7c1.3-0.1,1.9-0.1,3.1-0.2c-2.8-4.2-5.7-8.4-8.6-12.6C229.1,36.5,228.5,36.6,227.4,36.7z"/>
			<path class="st12" d="M246.6,42.4c0.8-2,1.7-4,2.6-6.1c-1.4-0.1-2.1-0.2-3.5-0.2c-0.6,1.6-0.9,2.4-1.4,4
				c-1.1-1.4-2.3-2.8-3.4-4.1c-1.4,0-2.1,0-3.5,0.1c1.9,2.1,3.8,4.2,5.7,6.3c-0.9,2.2-1.7,4.4-2.5,6.6c1.3,0,2-0.1,3.4-0.1
				c0.6-1.7,0.9-2.6,1.5-4.3c1.2,1.5,2.4,3,3.6,4.5c1.4,0.1,2.1,0.1,3.5,0.2C250.5,46.9,248.5,44.6,246.6,42.4z"/>
			<path class="st12" d="M196.2,58.2c-0.4-1.1-0.5-1.6-0.9-2.7c1.6-0.9,3.2-1.7,4.9-2.5c-0.3-1-0.5-1.5-0.8-2.5
				c-1.6,0.8-3.3,1.6-4.9,2.5c-0.4-1-0.5-1.6-0.9-2.6c1.8-1,3.7-1.9,5.6-2.8c-0.3-1-0.5-1.5-0.8-2.5c-2.8,1.3-5.6,2.8-8.3,4.3
				c1.4,4.2,2.9,8.5,4.3,12.7c1.6-0.9,3.3-1.9,5-2.7c0.2-1.2,0.3-1.9,0.4-3.1C198.4,57.1,197.7,57.5,196.2,58.2z"/>
			<path class="st12" d="M216.8,38.8c-0.6,1.6-1.2,3.3-1.8,5c-1.4-1.1-2.8-2.2-4.2-3.3l0,0c-0.4,2.2-0.9,4.4-1.3,6.6
				c0.7,2.4,1.5,4.8,2.2,7.2c1.1-0.4,1.7-0.6,2.8-0.9c-0.8-2.7-1.6-5.3-2.4-8c1.4,1,2.8,2,4.2,3l0,0c0.1,0,0.1,0,0.1,0
				c0.6-1.6,1.3-3.2,1.9-4.8c0.8,2.7,1.6,5.4,2.3,8c1.1-0.3,1.7-0.4,2.9-0.6c-1.2-4.3-2.5-8.6-3.7-12.9
				C218.7,38.3,218,38.5,216.8,38.8z"/>
			<path class="st8" d="M205.2,56.8c0.8-5.2,1.7-10.3,2.7-15.5c-1.4,0.5-2.1,0.7-3.5,1.3c-0.9,5.2-1.8,10.5-2.5,15.7
				C203.2,57.6,203.9,57.3,205.2,56.8z"/>
		</g>
		<g>
			<path class="st2" d="M298,119.1c-8.7-0.9-17.3-2.4-25.8-4.5c-4.4-1.1-8.8-2.3-13.1-3.7c-1-0.3-1.5,1.3-0.4,1.6
				c12.8,4.1,26,6.8,39.4,8.2v-1.6H298z"/>
		</g>
		<g>
			<path class="st2" d="M260.2,93c6.5,1.6,13,3.2,19.4,4.9c1,0.3,1.5-1.4,0.4-1.6c-6.5-1.6-13-3.2-19.4-4.9
				C259.6,91.1,259.1,92.8,260.2,93L260.2,93z"/>
		</g>
	</g>
	<rect y="213.5" class="st13" width="357" height="21.5"/>
</g>
</svg>
