<?xml version="1.0" encoding="utf-8"?>
<!-- Generator: Adobe Illustrator 22.0.1, SVG Export Plug-In . SVG Version: 6.00 Build 0)  -->
<svg version="1.1" id="Layer_1" xmlns="http://www.w3.org/2000/svg" xmlns:xlink="http://www.w3.org/1999/xlink" x="0px" y="0px"
	 viewBox="0 0 283.3 129.5" style="enable-background:new 0 0 283.3 129.5;" xml:space="preserve">
<style type="text/css">
	.st0{fill:#1E355E;}
	.st1{fill:#FFFFFF;}
	.st2{fill:url(#XMLID_15_);}
	.st3{fill:url(#XMLID_16_);}
	.st4{fill:url(#XMLID_17_);}
	.st5{fill:url(#XMLID_18_);}
	.st6{fill:#DC1C2E;}
	.st7{fill:#C51828;}
	.st8{fill:#A51220;}
	.st9{fill:#404041;}
	.st10{fill:#626366;}
	.st11{fill:#003DA5;}
	.st12{fill:#00378C;}
	.st13{fill:#002D6F;}
</style>
<rect id="XMLID_773_" x="84.5" y="91.7" class="st0" width="188.6" height="1.7"/>
<rect id="XMLID_772_" x="84.5" y="7.5" class="st0" width="69.9" height="1.7"/>
<rect id="XMLID_771_" x="203.1" y="7.5" class="st0" width="69.9" height="1.7"/>
<polygon id="XMLID_770_" class="st0" points="165.8,5.4 168.2,5.4 168.2,13 170,13 170,5.4 172.3,5.4 172.3,3.7 165.8,3.7 "/>
<polygon id="XMLID_769_" class="st0" points="180.3,7.5 177.2,7.5 177.2,3.7 175.4,3.7 175.4,12.9 177.2,12.9 177.2,9.2 180.3,9.2 
	180.3,12.9 182.1,12.9 182.1,3.7 180.3,3.7 "/>
<polygon id="XMLID_768_" class="st0" points="187.6,11.3 187.6,9.1 191.2,9.1 191.2,7.5 187.6,7.5 187.6,5.4 191.7,5.4 191.7,3.7 
	185.8,3.7 185.8,12.9 191.8,12.9 191.8,11.3 "/>
<path id="XMLID_765_" class="st0" d="M110.3,32.8v-0.2c0-2.8-0.9-5.2-2.6-7c-1.9-1.9-4.9-3-8.4-3H87.8v31.2h5.9V43.2h4.5
	c0,0,0.1,0,0.1,0l6.3,10.5l0.1,0.2h6.8l-7.3-12C108.1,40.4,110.3,37.1,110.3,32.8 M104.4,32.9L104.4,32.9c0,3.1-2.1,4.9-5.7,4.9h-5
	v-9.7h5.1C102.4,28.1,104.4,29.8,104.4,32.9"/>
<path id="XMLID_762_" class="st0" d="M224.8,22.5h-5.4l-11.3,30.8l-0.2,0.5h5.9l2.5-7.2h11.2l2.5,7.2h6.1l-11.4-31.1L224.8,22.5z
	 M225.8,41.5h-7.5l3.8-10.6L225.8,41.5z"/>
<polygon id="XMLID_761_" class="st0" points="260.1,38 269.3,22.7 262.8,22.7 256.7,33.2 250.8,22.7 244.1,22.7 253.3,38 
	243.7,53.9 250.3,53.9 256.7,42.7 262.9,53.7 263,53.9 269.8,53.9 "/>
<polygon id="XMLID_760_" class="st0" points="146.2,53.6 146,53.9 152.5,53.9 168.8,23.1 168.9,22.8 162.4,22.8 "/>
<polygon id="XMLID_759_" class="st0" points="185.6,36.2 178.3,23.2 178,22.5 172.2,33.5 172.1,53.9 177.9,53.9 177.9,33.6 
	185.1,46.3 185.3,46.5 185.9,46.5 193.3,33.5 193.3,53.9 199.1,53.9 199.1,22.7 193.2,22.7 "/>
<polygon id="XMLID_758_" class="st0" points="121.9,53.9 136.5,53.9 139.3,48.5 127.7,48.5 127.7,40.9 140.3,40.9 140.3,35.5 
	127.7,35.5 127.7,28.1 141.9,28.1 141.9,22.7 121.9,22.7 "/>
<path id="XMLID_757_" class="st0" d="M87.8,71.4v-0.2c0-4.6,2.9-7.8,6.8-7.8c2.1,0,3.6,0.8,4.8,1.9l-1.5,1.9
	c-0.9-0.8-1.9-1.5-3.3-1.5c-2.4,0-4.2,2.2-4.2,5.4v0.1c0,3.3,1.8,5.5,4.2,5.5c1.5,0,2.4-0.7,3.4-1.6l1.5,1.8c-1.3,1.4-2.9,2.2-5,2.2
	C90.6,79.1,87.8,76,87.8,71.4"/>
<path id="XMLID_754_" class="st0" d="M107.4,71.4v-0.2c0-4.5,2.8-7.8,6.8-7.8c4,0,6.7,3.2,6.7,7.7v0.2c0,4.5-2.8,7.8-6.8,7.8
	C110.1,79.1,107.4,75.9,107.4,71.4 M118.3,71.4v-0.2c0-3.3-1.7-5.5-4.2-5.5c-2.4,0-4.1,2.2-4.1,5.5v0.2c0,3.3,1.8,5.5,4.2,5.5
	C116.5,76.8,118.3,74.7,118.3,71.4"/>
<polygon id="XMLID_753_" class="st0" points="130.2,63.6 132.7,63.6 132.7,76.6 139.2,76.6 139.2,78.9 130.2,78.9 "/>
<polygon id="XMLID_752_" class="st0" points="148.1,63.6 150.6,63.6 150.6,76.6 157.2,76.6 157.2,78.9 148.1,78.9 "/>
<polygon id="XMLID_751_" class="st0" points="166,63.6 175.6,63.6 175.6,65.9 168.5,65.9 168.5,70.1 174.8,70.1 174.8,72.4 
	168.5,72.4 168.5,76.6 175.7,76.6 175.7,78.9 166,78.9 "/>
<path id="XMLID_750_" class="st0" d="M184.3,71.4v-0.2c0-4.6,2.9-7.8,6.8-7.8c2.1,0,3.6,0.8,4.8,1.9l-1.5,1.9
	c-0.9-0.8-1.9-1.5-3.3-1.5c-2.4,0-4.2,2.2-4.2,5.4v0.1c0,3.3,1.8,5.5,4.2,5.5c1.5,0,2.4-0.7,3.4-1.6L196,77c-1.3,1.4-2.9,2.2-5,2.2
	C187.1,79.1,184.3,76,184.3,71.4"/>
<polygon id="XMLID_749_" class="st0" points="207.9,66 203.9,66 203.9,63.6 214.4,63.6 214.4,66 210.4,66 210.4,78.9 207.9,78.9 "/>
<rect id="XMLID_748_" x="223.5" y="63.6" class="st0" width="2.5" height="15.3"/>
<path id="XMLID_745_" class="st0" d="M235.4,71.4v-0.2c0-4.5,2.8-7.8,6.8-7.8c4,0,6.7,3.2,6.7,7.7v0.2c0,4.5-2.8,7.8-6.8,7.8
	C238.2,79.1,235.4,75.9,235.4,71.4 M246.3,71.4v-0.2c0-3.3-1.7-5.5-4.2-5.5c-2.4,0-4.1,2.2-4.1,5.5v0.2c0,3.3,1.8,5.5,4.2,5.5
	C244.6,76.8,246.3,74.7,246.3,71.4"/>
<polygon id="XMLID_744_" class="st0" points="258.2,63.6 260.6,63.6 267.3,73.8 267.3,63.6 269.8,63.6 269.8,78.9 267.6,78.9 
	260.7,68.4 260.7,78.9 258.2,78.9 "/>
<path id="XMLID_739_" class="st0" d="M275.1,63.5c1.5,0,2.7,1.2,2.7,2.7c0,1.5-1.2,2.7-2.7,2.7c-1.5,0-2.7-1.2-2.7-2.7
	C272.4,64.7,273.6,63.5,275.1,63.5L275.1,63.5z M275.1,63.9c-1.2,0-2.2,1-2.2,2.3c0,1.3,1,2.3,2.2,2.3c1.2,0,2.2-1,2.2-2.3
	C277.3,64.9,276.3,63.9,275.1,63.9L275.1,63.9z M274.6,67.7h-0.5v-3c0.3,0,0.5-0.1,0.9-0.1c0.5,0,0.8,0.1,0.9,0.2
	c0.2,0.1,0.3,0.3,0.3,0.6c0,0.4-0.3,0.6-0.6,0.7v0c0.3,0,0.4,0.3,0.5,0.7c0.1,0.5,0.1,0.6,0.2,0.7h-0.5c-0.1-0.1-0.1-0.4-0.2-0.8
	c-0.1-0.4-0.3-0.5-0.7-0.5h-0.3V67.7z M274.6,66.1h0.4c0.4,0,0.7-0.1,0.7-0.5c0-0.3-0.2-0.5-0.7-0.5c-0.2,0-0.3,0-0.4,0V66.1z"/>
<path id="XMLID_736_" class="st1" d="M34.7,93.5c-0.3,0-0.6-0.2-0.7-0.6l-1.2-4.4c-0.4-0.1-0.7-0.4-0.7-0.8v-0.5
	c0-0.4,0.3-0.8,0.8-0.8h8.6c0.4,0,0.8,0.4,0.8,0.8v0.5c0,0.4-0.3,0.7-0.7,0.8l-1.2,4.4c-0.1,0.3-0.4,0.6-0.7,0.6H34.7z"/>
<path id="XMLID_735_" class="st1" d="M46.4,92.9c-1.7,0-3-1.3-3-3c0-1.6,1.3-3,3-3c1.6,0,3,1.3,3,3C49.4,91.6,48.1,92.9,46.4,92.9"
	/>
<path id="XMLID_734_" class="st1" d="M46.4,87.2c1.5,0,2.7,1.2,2.7,2.7c0,1.5-1.2,2.7-2.7,2.7c-1.5,0-2.7-1.2-2.7-2.7
	C43.7,88.4,44.9,87.2,46.4,87.2L46.4,87.2z"/>
<g id="XMLID_605_">
	<polygon id="XMLID_686_" class="st0" points="4.1,115.5 12.6,115.5 12.6,117.3 6.1,117.3 6.1,120.4 11.9,120.4 11.9,122.2 
		6.1,122.2 6.1,126.8 4.1,126.8 	"/>
	<path id="XMLID_683_" class="st0" d="M15.2,115.1h2.1v1.9h-2.1V115.1z M15.3,118.3h2v8.6h-2V118.3z"/>
	<path id="XMLID_682_" class="st0" d="M20.5,118.3h2v1.3c0.6-0.8,1.3-1.5,2.7-1.5c1.9,0,3,1.3,3,3.3v5.5h-2v-4.9
		c0-1.3-0.7-2.1-1.8-2.1c-1.1,0-1.9,0.8-1.9,2.1v4.8h-2V118.3z"/>
	<path id="XMLID_679_" class="st0" d="M30.7,122.6L30.7,122.6c0-2.5,1.7-4.5,4.2-4.5c2.7,0,4.1,2.1,4.1,4.6c0,0.2,0,0.4,0,0.6h-6.3
		c0.2,1.4,1.2,2.2,2.5,2.2c1,0,1.6-0.4,2.3-1l1.2,1c-0.8,1-1.9,1.6-3.5,1.6C32.6,127,30.7,125.2,30.7,122.6 M37.1,121.9
		c-0.1-1.3-0.9-2.3-2.2-2.3c-1.2,0-2,0.9-2.2,2.3H37.1z"/>
	<polygon id="XMLID_678_" class="st0" points="47.4,115.5 49.4,115.5 49.4,120.2 54.8,120.2 54.8,115.5 56.8,115.5 56.8,126.8 
		54.8,126.8 54.8,122 49.4,122 49.4,126.8 47.4,126.8 	"/>
	<path id="XMLID_674_" class="st0" d="M59.7,122.6L59.7,122.6c0-2.5,1.9-4.5,4.6-4.5c2.6,0,4.6,2,4.6,4.4v0c0,2.4-1.9,4.5-4.6,4.5
		C61.6,127,59.7,125,59.7,122.6 M66.8,122.6L66.8,122.6c0-1.5-1.1-2.8-2.6-2.8c-1.6,0-2.6,1.2-2.6,2.7v0c0,1.5,1.1,2.7,2.6,2.7
		C65.8,125.3,66.8,124.1,66.8,122.6"/>
	<path id="XMLID_673_" class="st0" d="M71.4,118.3h2v1.3c0.6-0.8,1.3-1.5,2.6-1.5c1.2,0,2.1,0.6,2.6,1.5c0.7-0.9,1.6-1.5,2.9-1.5
		c1.9,0,3,1.2,3,3.3v5.5h-2v-4.9c0-1.4-0.6-2.1-1.7-2.1c-1.1,0-1.8,0.7-1.8,2.1v4.8h-2v-4.9c0-1.3-0.6-2.1-1.7-2.1
		c-1.1,0-1.8,0.8-1.8,2.1v4.8h-2V118.3z"/>
	<path id="XMLID_648_" class="st0" d="M87,122.6L87,122.6c0-2.5,1.7-4.5,4.2-4.5c2.7,0,4.1,2.1,4.1,4.6c0,0.2,0,0.4,0,0.6H89
		c0.2,1.4,1.2,2.2,2.5,2.2c1,0,1.6-0.4,2.3-1l1.2,1c-0.8,1-1.9,1.6-3.5,1.6C88.9,127,87,125.2,87,122.6 M93.4,121.9
		c-0.1-1.3-0.9-2.3-2.2-2.3c-1.2,0-2,0.9-2.2,2.3H93.4z"/>
	<path id="XMLID_641_" class="st0" d="M97.2,125.7l0.9-1.3c0.9,0.7,1.9,1.1,2.8,1.1c0.8,0,1.3-0.4,1.3-0.9v0c0-0.7-0.9-0.9-1.9-1.2
		c-1.3-0.4-2.7-0.9-2.7-2.5v0c0-1.6,1.3-2.6,3-2.6c1.1,0,2.2,0.4,3.1,1l-0.8,1.4c-0.8-0.5-1.7-0.8-2.4-0.8c-0.8,0-1.2,0.4-1.2,0.8v0
		c0,0.6,0.9,0.9,1.9,1.2c1.3,0.4,2.7,1,2.7,2.5v0c0,1.8-1.4,2.7-3.2,2.7C99.6,127,98.3,126.5,97.2,125.7"/>
	<path id="XMLID_637_" class="st0" d="M118.8,125.5c-1,0.9-2.1,1.5-3.5,1.5c-2.1,0-3.7-1.3-3.7-3.2v0c0-1.5,0.9-2.5,2.4-3.2
		c-0.6-0.8-0.9-1.5-0.9-2.4v0c0-1.5,1.2-2.9,3.3-2.9c1.8,0,3,1.2,3,2.7v0c0,1.5-1,2.4-2.5,2.9l1.9,2c0.4-0.6,0.8-1.4,1.2-2.2
		l1.5,0.8c-0.5,0.9-1,1.8-1.5,2.6l1.8,1.8l-1.5,1.1L118.8,125.5z M117.7,124.3l-2.5-2.6c-1.1,0.5-1.5,1.2-1.5,1.9v0
		c0,1,0.8,1.7,1.9,1.7C116.3,125.3,117,124.9,117.7,124.3 M117.6,118.2L117.6,118.2c0-0.8-0.5-1.3-1.3-1.3c-0.8,0-1.4,0.6-1.4,1.4v0
		c0,0.6,0.2,1,0.9,1.7C117,119.5,117.6,119,117.6,118.2"/>
	<polygon id="XMLID_636_" class="st0" points="129.9,115.5 131.9,115.5 131.9,125 137.9,125 137.9,126.8 129.9,126.8 	"/>
	<path id="XMLID_635_" class="st0" d="M140.3,123.7v-5.4h2v4.9c0,1.3,0.7,2.1,1.8,2.1c1.1,0,1.9-0.8,1.9-2.1v-4.8h2v8.6h-2v-1.3
		c-0.5,0.8-1.3,1.5-2.7,1.5C141.4,127,140.3,125.7,140.3,123.7"/>
	<polygon id="XMLID_634_" class="st0" points="154.5,121.1 156.5,118.3 158.6,118.3 155.6,122.4 158.7,126.8 156.6,126.8 
		154.5,123.8 152.4,126.8 150.3,126.8 153.4,122.5 150.4,118.3 152.6,118.3 	"/>
	<path id="XMLID_633_" class="st0" d="M161,123.7v-5.4h2v4.9c0,1.3,0.7,2.1,1.8,2.1c1.1,0,1.9-0.8,1.9-2.1v-4.8h2v8.6h-2v-1.3
		c-0.6,0.8-1.3,1.5-2.7,1.5C162.1,127,161,125.7,161,123.7"/>
	<path id="XMLID_632_" class="st0" d="M171.8,118.3h2v1.9c0.5-1.3,1.5-2.2,3-2.1v2.1h-0.1c-1.7,0-2.9,1.1-2.9,3.4v3.3h-2V118.3z"/>
	<path id="XMLID_631_" class="st0" d="M185.1,118.3h2l-3.4,8.8c-0.7,1.7-1.4,2.4-2.8,2.4c-0.8,0-1.4-0.2-2-0.5l0.7-1.5
		c0.4,0.2,0.7,0.3,1.2,0.3c0.5,0,0.9-0.2,1.2-1l-3.6-8.6h2.1l2.4,6.4L185.1,118.3z"/>
	<path id="XMLID_628_" class="st0" d="M195.2,115.5h4.5c2.7,0,4.3,1.5,4.3,3.8v0c0,2.5-2,3.9-4.5,3.9h-2.3v3.6h-2V115.5z
		 M199.5,121.4c1.5,0,2.4-0.8,2.4-2v0c0-1.3-1-2-2.4-2h-2.3v4.1H199.5z"/>
	<path id="XMLID_627_" class="st0" d="M206.5,118.3h2v1.9c0.5-1.3,1.5-2.2,3-2.1v2.1h-0.1c-1.7,0-2.9,1.1-2.9,3.4v3.3h-2V118.3z"/>
	<path id="XMLID_624_" class="st0" d="M213.1,122.6L213.1,122.6c0-2.5,1.9-4.5,4.6-4.5c2.6,0,4.6,2,4.6,4.4v0c0,2.4-1.9,4.5-4.6,4.5
		C215,127,213.1,125,213.1,122.6 M220.2,122.6L220.2,122.6c0-1.5-1.1-2.8-2.6-2.8c-1.6,0-2.6,1.2-2.6,2.7v0c0,1.5,1.1,2.7,2.6,2.7
		C219.2,125.3,220.2,124.1,220.2,122.6"/>
	<path id="XMLID_620_" class="st0" d="M224.8,118.3h2v1.4c0.6-0.9,1.5-1.6,2.9-1.6c2,0,4,1.6,4,4.4v0c0,2.8-1.9,4.4-4,4.4
		c-1.4,0-2.3-0.7-2.9-1.5v3.9h-2V118.3z M231.7,122.5L231.7,122.5c0-1.7-1.1-2.8-2.4-2.8c-1.3,0-2.5,1.1-2.5,2.7v0
		c0,1.6,1.2,2.7,2.5,2.7C230.6,125.3,231.7,124.2,231.7,122.5"/>
	<path id="XMLID_617_" class="st0" d="M235.9,122.6L235.9,122.6c0-2.5,1.7-4.5,4.2-4.5c2.7,0,4.1,2.1,4.1,4.6c0,0.2,0,0.4,0,0.6
		h-6.3c0.2,1.4,1.2,2.2,2.5,2.2c1,0,1.6-0.4,2.3-1l1.2,1c-0.8,1-1.9,1.6-3.5,1.6C237.8,127,235.9,125.2,235.9,122.6 M242.2,121.9
		c-0.1-1.3-0.9-2.3-2.2-2.3c-1.2,0-2,0.9-2.2,2.3H242.2z"/>
	<path id="XMLID_616_" class="st0" d="M246.8,118.3h2v1.9c0.5-1.3,1.5-2.2,3-2.1v2.1h-0.1c-1.7,0-2.9,1.1-2.9,3.4v3.3h-2V118.3z"/>
	<path id="XMLID_615_" class="st0" d="M254.6,124.4v-4.5h-1.1v-1.7h1.1v-2.3h2v2.3h2.3v1.7h-2.3v4.2c0,0.8,0.4,1.1,1.1,1.1
		c0.4,0,0.8-0.1,1.2-0.3v1.6c-0.5,0.3-1,0.4-1.8,0.4C255.6,127,254.6,126.3,254.6,124.4"/>
	<path id="XMLID_612_" class="st0" d="M261.5,115.1h2.1v1.9h-2.1V115.1z M261.6,118.3h2v8.6h-2V118.3z"/>
	<path id="XMLID_607_" class="st0" d="M266.3,122.6L266.3,122.6c0-2.5,1.7-4.5,4.2-4.5c2.7,0,4.1,2.1,4.1,4.6c0,0.2,0,0.4,0,0.6
		h-6.3c0.2,1.4,1.2,2.2,2.5,2.2c1,0,1.6-0.4,2.3-1l1.1,1c-0.8,1-1.9,1.6-3.5,1.6C268.2,127,266.3,125.2,266.3,122.6 M272.6,121.9
		c-0.1-1.3-0.9-2.3-2.2-2.3c-1.2,0-2,0.9-2.2,2.3H272.6z"/>
	<path id="XMLID_606_" class="st0" d="M276.5,125.7l0.9-1.3c0.9,0.7,1.9,1.1,2.8,1.1c0.8,0,1.3-0.4,1.3-0.9v0c0-0.7-0.9-0.9-1.9-1.2
		c-1.3-0.4-2.7-0.9-2.7-2.5v0c0-1.6,1.3-2.6,3-2.6c1.1,0,2.2,0.4,3.1,1l-0.8,1.4c-0.8-0.5-1.7-0.8-2.4-0.8c-0.8,0-1.2,0.4-1.2,0.8v0
		c0,0.6,0.9,0.9,1.9,1.2c1.2,0.4,2.7,1,2.7,2.5v0c0,1.8-1.4,2.7-3.2,2.7C278.9,127,277.6,126.5,276.5,125.7"/>
</g>
<g id="XMLID_107_">
	<g id="XMLID_152_">
		<path id="XMLID_111_" class="st1" d="M32.8,84.6c-0.3,0-0.6-0.1-0.8-0.3l-3.9-3.8c-1.4-1.4-2.8-2.9-4.2-4.3l-0.6-0.6L22.8,75
			l-0.5-0.5l-0.5-0.5l-0.5-0.6l-0.5-0.6l-0.5-0.6l-0.5-0.6l-0.5-0.6l-0.5-0.6L18,70l-0.5-0.6c-0.1-0.1-0.5-0.6-0.5-0.6
			c-0.1-0.2-0.5-0.5-0.5-0.5c-0.1-0.2-0.4-0.5-0.5-0.5C9.2,60.1,4.9,54.3,3.5,50.7l-0.1-0.2c-0.1-0.1-0.1-0.2-0.2-0.4c0,0,0,0,0,0
			c0,0,0-0.1-0.1-0.2c0,0,0-0.1,0-0.1c0,0,0,0,0,0c-1.3-3.4-2.2-7.4-2.6-11.3C0,33.4,0.4,28.6,1.7,24.2c0,0,0,0,0,0
			c0,0,0.1-0.2,0.1-0.2c0.6-2.2,1.6-4.4,2.8-6.5c2.4-4.2,5.1-6.8,6.9-8.3c1.7-1.4,3.4-2.4,4.6-2.7c0,0,0.1,0,0.1-0.1
			c4.2-3.8,9-4.4,11.5-4.4c0.4,0,0.8,0,1.2,0c0,0,0,0,0,0C29,2,29.1,2,29.1,2c2.5-1.8,6.1-2,7.6-2c0.2,0,0.3,0,0.4,0c0,0,0,0,0,0
			c0.1,0,0.2,0,0.4,0c1.4,0,5,0.2,7.6,2c0,0,0.1,0.1,0.2,0.1c0,0,0,0,0,0c0.4,0,0.8,0,1.2,0C49,2,53.8,2.6,58,6.4
			c0,0,0.1,0.1,0.1,0.1c1.2,0.3,2.9,1.3,4.6,2.7c1.8,1.5,4.5,4.1,6.9,8.3c1.3,2.2,2.2,4.4,2.8,6.6c0,0,0,0.1,0,0.1c0,0,0,0.1,0,0.1
			c0,0.1,0.1,0.2,0.1,0.3l0.1,0.2c0,0.1,0,0.2,0.1,0.2c0,0.2,0.1,0.3,0.1,0.5l0,0.1c0,0.1,0.1,0.3,0.1,0.4c0,0.1,0,0.2,0.1,0.2
			l0,0.1c0,0.2,0.1,0.4,0.1,0.6c0,0,0,0.2,0,0.2c0.1,0.3,0.1,0.5,0.1,0.8l0,0c0.3,1.7,0.5,3.6,0.5,5.4l0,0c0,0.3,0,0.6,0,0.8
			c0,7.4-2,13.5-2.8,15.7C71,50,71,50,71,50.1c-0.1,0.2-0.1,0.3-0.2,0.4l-0.1,0.2c0,0.1-0.1,0.1-0.1,0.2c0,0-0.1,0.2-0.1,0.2
			c0,0,0,0.1-0.1,0.1c0,0.1-0.1,0.2-0.1,0.3c0,0.1-0.1,0.1-0.1,0.2c0,0-0.1,0.2-0.1,0.2c0,0.1-0.1,0.2-0.1,0.3L70,52.2
			c-0.2,0.5-0.5,0.9-0.8,1.4l0,0c-2,3.3-5.4,7.8-10.2,13.2c0,0,0,0,0,0c-0.2,0.2-0.4,0.4-0.5,0.6l0,0c-0.2,0.2-0.4,0.4-0.5,0.6l0,0
			c-0.2,0.2-0.4,0.4-0.5,0.6l0,0c-0.2,0.2-0.4,0.4-0.5,0.6l0,0c-0.2,0.2-0.4,0.4-0.5,0.6l0,0c-0.2,0.2-0.4,0.4-0.5,0.6l0,0
			c-0.2,0.2-0.4,0.4-0.5,0.6l0,0c-0.2,0.2-0.4,0.4-0.5,0.6c0,0-0.4,0.4-0.6,0.6L53.4,73c-0.2,0.2-0.6,0.6-0.6,0.6
			c-4.6,4.8-8.6,8.8-10.6,10.7c-0.2,0.2-0.5,0.3-0.8,0.3H32.8z"/>
		<path id="XMLID_106_" class="st1" d="M34.7,93.5c-0.3,0-0.6-0.2-0.7-0.6l-1.2-4.4c-0.4-0.1-0.7-0.4-0.7-0.8v-0.5
			c0-0.4,0.3-0.8,0.8-0.8h8.6c0.4,0,0.8,0.3,0.8,0.8v0.5c0,0.4-0.3,0.7-0.7,0.8l-1.2,4.4c-0.1,0.3-0.4,0.6-0.7,0.6H34.7z"/>
		<g id="XMLID_153_">
			<path id="XMLID_105_" class="st1" d="M46.4,92.8c-1.7,0-3-1.3-3-3c0-1.6,1.3-3,3-3c1.6,0,3,1.3,3,3
				C49.4,91.5,48.1,92.8,46.4,92.8z"/>
			<path id="XMLID_154_" class="st1" d="M46.4,87.2c1.5,0,2.7,1.2,2.7,2.7c0,1.5-1.2,2.7-2.7,2.7c-1.5,0-2.7-1.2-2.7-2.7
				C43.7,88.4,44.9,87.2,46.4,87.2L46.4,87.2z"/>
		</g>
	</g>
	<g id="XMLID_108_">
		<g id="XMLID_115_">
			<g id="XMLID_146_">
				<path id="XMLID_103_" class="st1" d="M4.3,49.5c0.1,0.3,0.1,0.3,0.2,0.6C5.7,53.2,9,57.6,13,62.4c4.8,5.7,10.5,11.8,14.9,16.2
					c1.6,1.7,3.1,3.2,4.4,4.4c0,0,0,0,0,0c0.1,0.1,0.2,0.2,0.3,0.3l0.1,0l4.3,0h0l4.1,0l0.3,0c6.9-6.7,21.6-21.4,26.9-30.2l0,0
					c0.3-0.5,0.5-0.9,0.8-1.4c0,0,0-0.1,0.1-0.1c0-0.1,0.1-0.1,0.1-0.2c0-0.1,0.1-0.1,0.1-0.2c0-0.1,0.1-0.1,0.1-0.2
					c0-0.1,0.1-0.2,0.1-0.2c0,0,0-0.1,0.1-0.1c0.1-0.1,0.1-0.2,0.2-0.4c0,0,0-0.1,0-0.1l0,0c0-0.1,0.1-0.1,0.1-0.2
					c0-0.1,0.1-0.3,0.1-0.3c2.3-5.8,4.4-15.9,1.5-25.4c0,0-6.9-18.8-34.1-18.8C13,4.6,3,24.2,3,24.2l0,0.5l-0.1-0.1
					C0.1,33.9,2.1,43.7,4.3,49.5C4.3,49.5,4.3,49.5,4.3,49.5z"/>
				<linearGradient id="XMLID_15_" gradientUnits="userSpaceOnUse" x1="34.9665" y1="44.6475" x2="1.5236" y2="44.6475">
					<stop  offset="0" style="stop-color:#FFFFFF"/>
					<stop  offset="0.6214" style="stop-color:#FDFDFE"/>
					<stop  offset="0.845" style="stop-color:#F6F8FC"/>
					<stop  offset="1" style="stop-color:#EBEFF8"/>
				</linearGradient>
				<path id="XMLID_102_" class="st2" d="M4.3,49.5c0.1,0.3,0.1,0.3,0.2,0.6C5.7,53.2,9,57.6,13,62.4c4.8,5.7,10.5,11.8,14.9,16.2
					c1.6,1.7,3.1,3.2,4.4,4.4c0.1,0.1,0.2,0.2,0.3,0.3l0.1,0l2.3,0C21.8,54.6,27.5,15.4,29.1,6C10.8,9,3,24.2,3,24.2l0,0.5l-0.1-0.1
					C0.1,33.9,2.1,43.7,4.3,49.5C4.3,49.5,4.3,49.5,4.3,49.5z"/>
				
					<linearGradient id="XMLID_16_" gradientUnits="userSpaceOnUse" x1="-2971.8433" y1="-2859.6682" x2="-3005.2861" y2="-2859.6682" gradientTransform="matrix(-1 0 0 1 -2932.6453 2904.3157)">
					<stop  offset="0" style="stop-color:#FFFFFF"/>
					<stop  offset="0.6214" style="stop-color:#FDFDFE"/>
					<stop  offset="0.845" style="stop-color:#F6F8FC"/>
					<stop  offset="1" style="stop-color:#EBEFF8"/>
				</linearGradient>
				<path id="XMLID_101_" class="st3" d="M45,6C63.4,9,71.2,24.2,71.2,24.2l0,0.5l0.1-0.1c2.8,9.3,0.8,19.2-1.4,25c0,0,0,0,0,0
					c-0.1,0.3-0.1,0.3-0.2,0.6c-1.2,3.1-4.5,7.6-8.5,12.4c-4.8,5.7-10.5,11.8-14.9,16.2c-1.8,1.8-3.4,3.4-4.7,4.7l-0.1,0l-2.3,0
					C52.4,54.6,46.7,15.4,45,6z"/>
				<linearGradient id="XMLID_17_" gradientUnits="userSpaceOnUse" x1="75.13" y1="41.5059" x2="35.0755" y2="50.0198">
					<stop  offset="0" style="stop-color:#EBEFF8"/>
					<stop  offset="0.155" style="stop-color:#F6F8FC"/>
					<stop  offset="0.3786" style="stop-color:#FDFDFE"/>
					<stop  offset="1" style="stop-color:#FFFFFF"/>
				</linearGradient>
				<path id="XMLID_100_" class="st4" d="M59.5,50.5C53.7,64.9,44.1,79.7,42,82.8c4.2-4.1,10.9-10.8,16.6-17.3
					c0.9-1,1.8-2.1,2.6-3.1c3.8-4.5,7-8.8,8.3-11.9c0-0.1,0.1-0.2,0.1-0.2c0-0.1,0.1-0.2,0.1-0.2c0,0,0,0.1,0-0.1
					c0,0,0.1-0.1,0.2-0.5c2.2-5.7,4.2-15.6,1.4-25l-0.1-0.4c0,0-4-7.8-13.1-13.4C60.1,17.7,64.7,37.4,59.5,50.5z"/>
				<linearGradient id="XMLID_18_" gradientUnits="userSpaceOnUse" x1="24.516" y1="46.7481" x2="4.0699" y2="51.094">
					<stop  offset="0" style="stop-color:#FFFFFF"/>
					<stop  offset="0.6214" style="stop-color:#FDFDFE"/>
					<stop  offset="0.845" style="stop-color:#F6F8FC"/>
					<stop  offset="1" style="stop-color:#EBEFF8"/>
				</linearGradient>
				<path id="XMLID_96_" class="st5" d="M4.2,49.5c0.1,0.3,0.1,0.3,0.2,0.6c1.2,3.1,4.5,7.6,8.5,12.4c1.3,1.5,2.6,3.1,4,4.6
					c5.4,6.1,11.4,12,15.3,15.8c-2-3-11.7-17.9-17.4-32.3C9.5,37.4,14.1,17.7,16,10.8C6.9,16.4,2.9,24.2,2.9,24.2l-0.1,0.4
					C0,33.9,2,43.7,4.2,49.5C4.2,49.5,4.2,49.5,4.2,49.5z"/>
			</g>
			<g id="XMLID_140_">
				<path id="XMLID_95_" class="st6" d="M37.1,1.1c-0.8,0-5.2-0.1-7.7,2.1c0,0-7.1-1.2-12.7,4.3c-1.3,0-6.8,3.1-11.1,10.5
					c-1.2,2-2.1,4.2-2.7,6.3c0.9-1.1,4.1-5.6,11-5c0.5-0.4,4.8-5.1,13.7-3.4c1.2-1.3,5.7-2.6,9.5-2.7c3.7,0,8.2,1.4,9.5,2.7
					c8.9-1.6,13.3,3.1,13.7,3.4c6.9-0.6,10.2,3.8,11,5c-0.6-2.2-1.6-4.3-2.7-6.3c-4.3-7.4-9.8-10.5-11.1-10.5
					c-5.6-5.4-12.7-4.3-12.7-4.3C42.3,1.1,37.9,1.1,37.1,1.1"/>
				<path id="XMLID_94_" class="st7" d="M29.4,3.2c0,0-7.1-1.2-12.7,4.3c-1.3,0-6.8,3.1-11.1,10.5c-1.2,2-2.1,4.2-2.7,6.3
					c0.9-1.1,4.1-5.6,11-5c0.5-0.4,4.8-5,13.7-3.4C28.5,8.7,29.4,3.2,29.4,3.2z"/>
				<path id="XMLID_93_" class="st8" d="M13.9,19.3C13.9,19.3,13.9,19.3,13.9,19.3c1.3-6.7,2.8-11.8,2.8-11.8
					c-1.3,0-6.8,3.1-11.1,10.5c-1.2,2-2.1,4.2-2.7,6.3C3.7,23.2,7,18.7,13.9,19.3z"/>
				<path id="XMLID_92_" class="st7" d="M44.8,3.2c0,0,7.1-1.2,12.7,4.3c1.3,0,6.8,3.1,11.1,10.5c1.2,2,2.1,4.2,2.7,6.3
					c-0.9-1.1-4.1-5.6-11-5c-0.5-0.4-4.8-5-13.7-3.4C45.8,8.7,44.8,3.2,44.8,3.2z"/>
				<path id="XMLID_90_" class="st8" d="M60.3,19.3C60.3,19.3,60.3,19.3,60.3,19.3C59,12.6,57.5,7.5,57.5,7.5
					c1.3,0,6.8,3.1,11.1,10.5c1.2,2,2.1,4.2,2.7,6.3C70.5,23.2,67.2,18.7,60.3,19.3z"/>
			</g>
			<g id="XMLID_134_">
				<polygon id="XMLID_89_" class="st9" points="37.2,87.6 37.1,87.6 33.3,87.6 33.3,87.7 34.7,92.7 37.2,92.7 				"/>
				<polygon id="XMLID_88_" class="st10" points="37.1,87.6 37.2,87.6 41.1,87.6 41,87.7 39.6,92.7 37.1,92.7 				"/>
				<path id="XMLID_136_" class="st10" d="M41.4,87.8H33c-0.1,0-0.1-0.1-0.1-0.1v-0.3c0-0.1,0.1-0.1,0.1-0.1h8.4
					c0.1,0,0.1,0.1,0.1,0.1v0.3C41.5,87.7,41.4,87.8,41.4,87.8z"/>
				<polygon id="XMLID_86_" class="st9" points="41,87.9 41,87.8 33.3,87.8 33.4,87.9 				"/>
			</g>
			<g id="XMLID_128_">
				<path id="XMLID_84_" class="st11" d="M60.8,45.8c-0.1,0-4.5-4.6-13.2-3.8c-0.5-0.3-3.7-2-10.6-2.4C30.8,39.7,27,41.7,26.5,42
					c-8.7-0.8-13.1,3.8-13.2,3.8c-5.2-0.1-8.7,3.5-9.1,4C4.4,50,4.4,50,4.5,50.3C7.8,58.4,25.1,76,32.8,83.4h4.3h4.3
					c7.7-7.5,25-25,28.3-33.2c0.1-0.3,0.1-0.3,0.2-0.6C69.6,49.3,66.1,45.6,60.8,45.8z"/>
				<path id="XMLID_57_" class="st12" d="M47.7,42c8.7-0.8,13.1,3.8,13.2,3.8c5.2-0.1,8.7,3.5,9.1,4c-0.1,0.3-0.1,0.3-0.2,0.6
					C66.4,58.4,49.1,76,41.4,83.4h-2.4C45.1,70.5,47.2,55.5,47.7,42L47.7,42z"/>
				<path id="XMLID_56_" class="st13" d="M60.8,45.8L60.8,45.8c5.2-0.1,8.8,3.5,9.1,4c-0.1,0.3-0.1,0.3-0.2,0.6
					C66.4,58.4,49.1,76,41.4,83.4c0,0,11.4-16.7,17.9-32.8C60,49.1,60.5,47.4,60.8,45.8z"/>
				<path id="XMLID_51_" class="st12" d="M26.5,42c-8.7-0.8-13.1,3.8-13.2,3.8c-5.2-0.1-8.7,3.5-9.1,4C4.4,50,4.4,50,4.5,50.3
					C7.8,58.4,25.1,76,32.8,83.4h2.4C29.2,70.5,27,55.5,26.5,42L26.5,42z"/>
				<path id="XMLID_13_" class="st13" d="M13.4,45.8L13.4,45.8c-5.2-0.1-8.8,3.5-9.1,4C4.4,50,4.4,50,4.5,50.3
					C7.8,58.4,25.1,76,32.8,83.4c0,0-11.4-16.7-17.9-32.8C14.2,49.1,13.7,47.4,13.4,45.8z"/>
			</g>
			<g id="XMLID_116_">
				<g id="XMLID_117_">
					<path id="XMLID_125_" class="st11" d="M18,28.8C18,28.8,18,28.8,18,28.8c0-1-0.4-1.7-1-2.1c-0.7-0.4-1.6-0.5-2.8-0.1
						c-1.3,0.4-2.5,0.9-3.8,1.4c0.2,3.2,0.4,6.5,0.5,9.7c0.8-0.3,1.2-0.5,2.1-0.8C13,35.7,13,35.1,13,33.8c0.5-0.2,0.7-0.3,1.2-0.4
						c0.8,1,1.2,1.5,2,2.6c1-0.3,1.5-0.4,2.4-0.7c-0.7-1-1.5-2-2.3-3C17.4,31.4,18.1,30.2,18,28.8z M15.8,29.5
						C15.8,29.5,15.8,29.5,15.8,29.5c0,0.9-0.5,1.6-1.5,1.9c-0.6,0.2-0.9,0.3-1.5,0.5c-0.1-1.1-0.1-1.7-0.1-2.8
						c0.6-0.2,0.9-0.3,1.4-0.5C15.2,28.3,15.8,28.6,15.8,29.5z"/>
					<path id="XMLID_122_" class="st11" d="M49.3,23.7c-1.3,3.1-2.6,6.2-3.9,9.4c0.9,0.1,1.3,0.2,2.2,0.3c0.3-0.8,0.5-1.2,0.8-2
						c1.4,0.2,2.1,0.3,3.4,0.6c0.3,0.9,0.4,1.4,0.7,2.3c0.9,0.2,1.3,0.3,2.2,0.5c-1.1-3.6-2.2-7.1-3.3-10.6
						C50.6,23.9,50.1,23.9,49.3,23.7z M51.2,30c-0.8-0.2-1.3-0.2-2.1-0.4c0.5-1.1,0.7-1.7,1.1-2.8C50.6,28.1,50.8,28.7,51.2,30z"/>
					<path id="XMLID_8_" class="st11" d="M61.5,31.7c1-1.2,2-2.5,3.1-3.7c-0.9-0.4-1.4-0.5-2.4-0.9c-0.7,1-1.1,1.5-1.8,2.5
						c-0.5-1.2-1-2.4-1.5-3.6c-1-0.3-1.5-0.4-2.5-0.7c0.9,1.9,1.8,3.7,2.7,5.6c-1.1,1.4-2.1,2.7-3.2,4.1c1,0.2,1.4,0.4,2.4,0.7
						c0.8-1.1,1.2-1.6,1.9-2.7c0.5,1.3,1.1,2.6,1.6,3.9c1,0.3,1.4,0.5,2.4,0.9C63.3,35.7,62.4,33.7,61.5,31.7z"/>
					<path id="XMLID_7_" class="st11" d="M23,32.3c0-0.8,0-1.3-0.1-2.1c1.3-0.3,2.6-0.5,3.9-0.7c0-0.8,0-1.1,0-1.9
						c-1.3,0.2-2.6,0.4-3.9,0.7c0-0.8,0-1.2-0.1-2c1.5-0.3,3-0.5,4.5-0.8c0-0.8,0-1.1,0-1.9c-2.3,0.3-4.5,0.8-6.7,1.3
						c0.1,3.3,0.2,6.5,0.3,9.8c1.3-0.3,2.7-0.6,4.1-0.8c0.4-0.8,0.6-1.2,0.9-2.1C24.7,31.9,24.1,32,23,32.3z"/>
					<path id="XMLID_6_" class="st11" d="M41.5,23c-0.8,1-1.5,2.1-2.3,3.1c-0.8-1.1-1.5-2.1-2.3-3.2c0,0,0,0,0,0
						c-0.8,1.4-1.5,2.9-2.3,4.3c0,1.8,0,3.7,0,5.5c0.9,0,1.3,0,2.1-0.1c0-2,0-4.1,0-6.1c0.8,1,1.6,2,2.3,3c0,0,0,0,0,0
						c0,0,0.1,0,0.1,0c0.8-1,1.6-2,2.4-3c0,2,0,4.1,0,6.1c0.9,0,1.3,0.1,2.1,0.1c0-3.3,0.1-6.5,0.1-9.8C42.9,23,42.4,23,41.5,23z"/>
					<path id="XMLID_5_" class="st6" d="M29.6,33.1c1.7-3.4,3.4-6.9,5.1-10.3c-1.1,0-1.6,0.1-2.7,0.2c-1.7,3.5-3.4,7-5.1,10.5
						C28,33.3,28.5,33.2,29.6,33.1z"/>
				</g>
			</g>
		</g>
		<g id="XMLID_109_">
			<path id="XMLID_110_" class="st10" d="M46.4,87.2c1.5,0,2.7,1.2,2.7,2.7c0,1.5-1.2,2.7-2.7,2.7c-1.5,0-2.7-1.2-2.7-2.7
				C43.7,88.4,44.9,87.2,46.4,87.2L46.4,87.2z M46.4,87.6c-1.2,0-2.2,1-2.2,2.3c0,1.3,1,2.3,2.2,2.3c1.2,0,2.2-1,2.2-2.3
				C48.6,88.6,47.6,87.6,46.4,87.6L46.4,87.6z M45.9,91.4h-0.5v-3c0.3,0,0.5-0.1,0.9-0.1c0.5,0,0.8,0.1,0.9,0.2
				c0.2,0.1,0.3,0.3,0.3,0.6c0,0.4-0.3,0.6-0.6,0.7v0c0.3,0,0.4,0.3,0.5,0.7c0.1,0.5,0.1,0.6,0.2,0.7h-0.5c-0.1-0.1-0.1-0.4-0.2-0.8
				c-0.1-0.4-0.3-0.5-0.7-0.5h-0.3V91.4z M45.9,89.8h0.4c0.4,0,0.7-0.1,0.7-0.5c0-0.3-0.2-0.5-0.7-0.5c-0.2,0-0.3,0-0.4,0V89.8z"/>
		</g>
	</g>
</g>
</svg>
