<?xml version="1.0" encoding="utf-8"?>
<!-- Generator: Adobe Illustrator 22.0.1, SVG Export Plug-In . SVG Version: 6.00 Build 0)  -->
<svg version="1.1" id="Layer_1" xmlns="http://www.w3.org/2000/svg" xmlns:xlink="http://www.w3.org/1999/xlink" x="0px" y="0px"
	 viewBox="0 0 228.6 73" style="enable-background:new 0 0 228.6 73;" xml:space="preserve">
<style type="text/css">
	.st0{fill:#DC1C2E;}
	.st1{fill:#003DA5;}
	.st2{fill:#3F3F40;}
</style>
<g>
	<g>
		<path class="st0" d="M32,14.2V14c0-4-1.3-7.4-3.7-9.7c-2.8-2.6-6.9-4-11.9-4H0V42h9.3V28.3h5.3l8,13.6h10.7L24,26.5
			C27.8,24.9,32,21.4,32,14.2 M22.7,14.3L22.7,14.3c0,3.8-2.6,6.1-6.9,6.1H9.3V8.3h6.3C20.2,8.3,22.7,10.4,22.7,14.3 M163.8,0
			l-15.7,41.9h9.4l3.2-9h14.7l3.2,9h9.7L172.6,0H163.8z M172.6,25h-9l4.5-12.7L172.6,25z M215.5,20.6L228,0.2h-10.4l-7.4,13.2
			L203,0.2h-10.6l12.4,20.5l-12.9,21.2h10.4l7.9-14l7.8,14h10.6L215.5,20.6z M51.3,33.8v-8.9H68v-8.1H51.3V8.3h19V0.2H42v41.7h17.5
			l4.3-8.1C63.8,33.8,51.3,33.8,51.3,33.8z M131.3,0.2l-9.4,13.5l-9.6-13.5h-0.1l-9.6,18.2v23.5h9.1V16.1l9.8,12.8l0.1,0.1h0.4
			l9.9-13v25.9h9.2V0.2H131.3z"/>
		<polygon class="st1" points="91.1,0.2 69.1,41.9 80.4,41.9 102.4,0.2 		"/>
	</g>
</g>
<g>
	<path class="st2" d="M16.6,69.3h-2.8l-1.5-3.7H5l-1.6,3.7H0.7L7.4,54h2.5L16.6,69.3z M8.6,57.2L6,63.3h5.2L8.6,57.2z"/>
	<path class="st2" d="M29,69.3L25.3,64h-3.4v5.3h-2.7V54.1H26c0.9,0,1.7,0.1,2.4,0.3c0.7,0.2,1.3,0.5,1.8,1c0.5,0.4,0.9,0.9,1.1,1.5
		s0.4,1.3,0.4,2c0,0.6-0.1,1.2-0.3,1.7s-0.4,0.9-0.8,1.3s-0.7,0.7-1.1,1c-0.4,0.3-0.9,0.5-1.5,0.6l4.1,5.8H29z M28.2,57.1
		c-0.6-0.4-1.3-0.6-2.3-0.6h-3.9v5.1h3.9c1,0,1.7-0.2,2.3-0.7c0.6-0.5,0.9-1.1,0.9-1.9C29,58.2,28.7,57.6,28.2,57.1z"/>
	<path class="st2" d="M47.3,68.1c-0.5,0.3-1,0.5-1.5,0.8c-0.5,0.2-1.1,0.4-1.7,0.5s-1.2,0.2-1.9,0.2C41,69.6,40,69.4,39,69
		c-1-0.4-1.8-1-2.5-1.7c-0.7-0.7-1.2-1.5-1.6-2.5c-0.4-1-0.6-2-0.6-3.1c0-1.1,0.2-2.1,0.6-3c0.4-1,0.9-1.8,1.6-2.5
		c0.7-0.7,1.5-1.3,2.5-1.7s2-0.6,3.2-0.6c0.7,0,1.3,0,1.8,0.1s1,0.2,1.5,0.4c0.5,0.2,0.9,0.4,1.3,0.6c0.4,0.3,0.8,0.5,1.2,0.9
		l-1.7,2c-0.3-0.2-0.6-0.5-0.9-0.7c-0.3-0.2-0.6-0.4-1-0.5c-0.3-0.1-0.7-0.2-1.1-0.3s-0.8-0.1-1.3-0.1c-0.7,0-1.3,0.1-1.9,0.4
		c-0.6,0.3-1.1,0.7-1.6,1.2c-0.4,0.5-0.8,1.1-1,1.7c-0.3,0.7-0.4,1.4-0.4,2.1c0,0.8,0.1,1.5,0.4,2.2c0.2,0.7,0.6,1.2,1.1,1.7
		c0.5,0.5,1,0.9,1.6,1.1c0.6,0.3,1.3,0.4,2.1,0.4c0.7,0,1.4-0.1,2-0.3c0.6-0.2,1.2-0.5,1.6-0.8v-2.9h-3.9v-2.3h6.5v6.4
		C48.2,67.5,47.8,67.8,47.3,68.1z"/>
	<path class="st2" d="M63.4,56.5h-8.6v3.9h7.6v2.4h-7.6v4.1h8.7v2.4H52.1V54.1h11.3V56.5z"/>
	<path class="st2" d="M77.3,54.1H80v15.2h-2.2l-8.4-10.8v10.8h-2.7V54.1h2.5l8.2,10.5V54.1z"/>
	<path class="st2" d="M90.3,69.3h-2.7V56.5h-4.8v-2.5h12.4v2.5h-4.8V69.3z"/>
	<path class="st2" d="M100.8,54.1v15.2h-2.7V54.1H100.8z"/>
	<path class="st2" d="M115.5,54.1h2.7v15.2h-2.2l-8.4-10.8v10.8h-2.7V54.1h2.5l8.2,10.5V54.1z"/>
	<path class="st2" d="M136.7,69.3h-2.8l-1.5-3.7h-7.2l-1.6,3.7h-2.7l6.7-15.4h2.5L136.7,69.3z M128.7,57.2l-2.6,6.1h5.3L128.7,57.2z
		"/>
</g>
</svg>
